<svg xmlns="http://www.w3.org/2000/svg" viewBox="0 0 77.65 80">
    <defs>
        <style>.cls-1{fill:#293241;}.cls-2{fill:#98c1d9;}.cls-3{fill:#ee6c4d;}</style>
    </defs>
    <g id="Capa_2" data-name="Capa 2">
        <g id="Capa_1-2" data-name="Capa 1">
            <path class="cls-1" d="M20,79.5A19.53,19.53,0,0,1,.5,60V3A2.5,2.5,0,0,1,3,.5H62.65A14.52,14.52,0,0,1,77.15,15V77a2.5,2.5,0,0,1-2.5,2.5Z"/>
            <path class="cls-2" d="M62.65,1a14,14,0,0,1,14,14V77a2,2,0,0,1-2,2H20A19,19,0,0,1,1,60V3A2,2,0,0,1,3,1H62.65m0-1H3A3,3,0,0,0,0,3V60A20,20,0,0,0,20,80H74.65a3,3,0,0,0,3-3V15a15,15,0,0,0-15-15Z"/>
            <text/>
            <path class="cls-3" d="M35.35,31c3,2.58,4.56,6.55,4.56,11.91V60.55H27.31V56.23Q25,61.15,18,61.15a14.78,14.78,0,0,1-6.63-1.35A9.51,9.51,0,0,1,5.83,51a8.33,8.33,0,0,1,3.72-7.38c2.47-1.68,6.24-2.52,11.28-2.52h5.46c-.45-2.56-2.5-3.84-6.18-3.84a15.38,15.38,0,0,0-4.5.69,12.54,12.54,0,0,0-3.9,1.89L7.39,30.85a23.74,23.74,0,0,1,6.81-2.73,32.85,32.85,0,0,1,8-1Q30.79,27.13,35.35,31ZM24.67,52.21a4.57,4.57,0,0,0,1.68-2.34V47.59H23q-4.14,0-4.14,2.76a2.36,2.36,0,0,0,.87,1.89,3.47,3.47,0,0,0,2.37.75A4.48,4.48,0,0,0,24.67,52.21Z"/>
            <path class="cls-3" d="M52.86,29.23v7.2H70.38V47.11H52.86V60.55H38.7v-42H72.84V29.23Z"/>
        </g>
    </g>
</svg>